<svg xmlns="http://www.w3.org/2000/svg" width="21" height="32" viewBox="0 0 21 32">
  <defs>
    <linearGradient id="icon_feature_plugin-a" x1="50%" x2="0%" y1="100%" y2="0%">
      <stop offset="0%" stop-color="#2CDA9C"/>
      <stop offset="100%" stop-color="#1F9948"/>
    </linearGradient>
  </defs>
  <path fill="url(#icon_feature_plugin-a)" d="M659.21875,120.666667 L652.65625,120.666667 C652.294,120.666667 652,120.965333 652,121.333333 C652,121.701333 652.294,122 652.65625,122 L659.21875,122 C662.475063,122 665.125,119.308 665.125,116 L665.125,112.666667 L667.09375,112.666667 C667.456,112.666667 667.75,112.368 667.75,112 L667.75,110 L671.03125,110 C672.116688,110 673,109.102667 673,108 L673,98.6666667 C673,97.564 672.116688,96.6666667 671.03125,96.6666667 L669.0625,96.6666667 L669.0625,90.6666667 C669.0625,90.2986667 668.7685,90 668.40625,90 C668.044,90 667.75,90.2986667 667.75,90.6666667 L667.75,96.6666667 L661.1875,96.6666667 L661.1875,90.6666667 C661.1875,90.2986667 660.8935,90 660.53125,90 C660.169,90 659.875,90.2986667 659.875,90.6666667 L659.875,96.6666667 L657.90625,96.6666667 C656.820812,96.6666667 655.9375,97.564 655.9375,98.6666667 L655.9375,108 C655.9375,109.102667 656.820812,110 657.90625,110 L661.1875,110 L661.1875,112 C661.1875,112.368 661.4815,112.666667 661.84375,112.666667 L663.8125,112.666667 L663.8125,116 C663.8125,118.573333 661.751875,120.666667 659.21875,120.666667 Z M657.25,108 L657.25,98.6666667 C657.25,98.2986667 657.544,98 657.90625,98 L671.03125,98 C671.3935,98 671.6875,98.2986667 671.6875,98.6666667 L671.6875,108 C671.6875,108.368 671.3935,108.666667 671.03125,108.666667 L657.90625,108.666667 C657.544,108.666667 657.25,108.368 657.25,108 Z M662.5,110 L666.4375,110 L666.4375,111.333333 L662.5,111.333333 L662.5,110 Z" transform="translate(-652 -90)"/>
</svg>
