<svg xmlns="http://www.w3.org/2000/svg" width="32" height="33" viewBox="0 0 32 33">
  <defs>
    <linearGradient id="icon_feature_component-a" x1="50%" x2="0%" y1="100%" y2="0%">
      <stop offset="0%" stop-color="#2CDA9C"/>
      <stop offset="100%" stop-color="#1F9948"/>
    </linearGradient>
  </defs>
  <g fill="url(#icon_feature_component-a)">
    <path d="M.650717703 14.554386L13.6650718 14.554386C14.0242679 14.554386 14.3157895 14.2580057 14.3157895 13.892823L14.3157895.661562998C14.3157895.296380223 14.0242679 0 13.6650718 0L.650717703 0C.291521531 0 0 .296380223 0 .661562998L0 13.892823C0 14.2580057.291521531 14.554386.650717703 14.554386zM1.30143541 1.323126L13.0143541 1.323126 13.0143541 13.23126 1.30143541 13.23126 1.30143541 1.323126zM31.3492823 0L18.3349282 0C17.9757321 0 17.6842105.296380223 17.6842105.661562998L17.6842105 13.892823C17.6842105 14.2580057 17.9757321 14.554386 18.3349282 14.554386L31.3492823 14.554386C31.7084785 14.554386 32 14.2580057 32 13.892823L32 .661562998C32 .296380223 31.7084785 0 31.3492823 0zM30.6985646 13.23126L18.9856459 13.23126 18.9856459 1.323126 30.6985646 1.323126 30.6985646 13.23126zM.650717703 32.5333333L13.6650718 32.5333333C14.0242679 32.5333333 14.3157895 32.2369531 14.3157895 31.8717703L14.3157895 18.6405104C14.3157895 18.2753276 14.0242679 17.9789474 13.6650718 17.9789474L.650717703 17.9789474C.291521531 17.9789474 0 18.2753276 0 18.6405104L0 31.8717703C0 32.2369531.291521531 32.5333333.650717703 32.5333333zM1.30143541 19.3020734L13.0143541 19.3020734 13.0143541 31.2102073 1.30143541 31.2102073 1.30143541 19.3020734zM31.3492823 17.9789474L18.3349282 17.9789474C17.9757321 17.9789474 17.6842105 18.2753276 17.6842105 18.6405104L17.6842105 31.8717703C17.6842105 32.2369531 17.9757321 32.5333333 18.3349282 32.5333333L31.3492823 32.5333333C31.7084785 32.5333333 32 32.2369531 32 31.8717703L32 18.6405104C32 18.2753276 31.7084785 17.9789474 31.3492823 17.9789474zM30.6985646 31.2102073L18.9856459 31.2102073 18.9856459 19.3020734 30.6985646 19.3020734 30.6985646 31.2102073z"/>
  </g>
</svg>
