<svg xmlns="http://www.w3.org/2000/svg" width="32" height="32" viewBox="0 0 32 32">
  <defs>
    <linearGradient id="icon_-optimize_fature-a" x1="35.276%" x2="64.724%" y1="35.276%" y2="64.724%">
      <stop offset="0%" stop-color="#369CDC"/>
      <stop offset="100%" stop-color="#AA56D0"/>
    </linearGradient>
  </defs>
  <path fill="url(#icon_-optimize_fature-a)" d="M31.18,4.11066667 C30.956,4.05866667 30.7186667,4.12533333 30.556,4.288 L27.12,7.724 L24.276,4.88 L27.712,1.444 C27.876,1.28 27.9426667,1.044 27.8893333,0.82 C27.836,0.594666667 27.6693333,0.413333333 27.4506667,0.34 C26.772,0.114666667 26.0586667,0 25.3333333,0 C21.6573333,0 18.6666667,2.99066667 18.6666667,6.66666667 C18.6666667,7.36 18.8026667,8.016 19,8.64533333 C16.1133333,12.2853333 12.284,16.1133333 8.64533333,19 C8.016,18.8026667 7.36,18.6666667 6.66666667,18.6666667 C2.99066667,18.6666667 0,21.6573333 0,25.3333333 C0,26.0586667 0.114666667,26.772 0.34,27.4506667 C0.413333333,27.6693333 0.594666667,27.836 0.82,27.8893333 C1.04533333,27.9426667 1.28133333,27.8746667 1.444,27.712 L4.88,24.276 L7.724,27.12 L4.288,30.556 C4.12533333,30.72 4.05733333,30.956 4.11066667,31.18 C4.164,31.4053333 4.33066667,31.5866667 4.54933333,31.66 C5.228,31.8853333 5.94133333,32 6.66666667,32 C10.3426667,32 13.3333333,29.0093333 13.3333333,25.3333333 C13.3333333,24.64 13.1973333,23.984 13,23.3546667 C15.8866667,19.7146667 19.716,15.8866667 23.3546667,13 C23.984,13.1973333 24.64,13.3333333 25.3333333,13.3333333 C29.0093333,13.3333333 32,10.3426667 32,6.66666667 C32,5.94133333 31.8853333,5.228 31.66,4.54933333 C31.5853333,4.33066667 31.4053333,4.164 31.18,4.11066667 Z M6.66666667,30.6666667 C6.47333333,30.6666667 6.28266667,30.6573333 6.092,30.6373333 L9.13733333,27.592 C9.39733333,27.332 9.39733333,26.9093333 9.13733333,26.6493333 L5.35066667,22.8626667 C5.09066667,22.6026667 4.668,22.6026667 4.408,22.8626667 L1.36266667,25.908 C1.34266667,25.7173333 1.33333333,25.5266667 1.33333333,25.3333333 C1.33333333,22.392 3.72533333,20 6.66666667,20 C9.608,20 12,22.392 12,25.3333333 C12,28.2746667 9.608,30.6666667 6.66666667,30.6666667 Z M12.396,21.9813333 C11.8173333,20.9973333 11.0026667,20.1813333 10.0173333,19.6026667 C13.424,16.8333333 16.8346667,13.424 19.6026667,10.0173333 C20.1813333,11.0013333 20.996,11.8173333 21.9813333,12.396 C18.5746667,15.1653333 15.1653333,18.5746667 12.396,21.9813333 Z M25.3333333,12 C22.392,12 20,9.608 20,6.66666667 C20,3.72533333 22.392,1.33333333 25.3333333,1.33333333 C25.5253333,1.33333333 25.7173333,1.34266667 25.908,1.364 L22.8626667,4.40933333 C22.6026667,4.66933333 22.6026667,5.092 22.8626667,5.352 L26.6493333,9.13866667 C26.9093333,9.39866667 27.332,9.39866667 27.592,9.13866667 L30.6373333,6.09333333 C30.6573333,6.28266667 30.6666667,6.47466667 30.6666667,6.66666667 C30.6666667,9.608 28.2746667,12 25.3333333,12 Z"/>
</svg>
