<svg xmlns="http://www.w3.org/2000/svg" width="30" height="33" viewBox="0 0 30 33">
  <defs>
    <linearGradient id="icon_feature_compile-a" x1="50%" x2="0%" y1="100%" y2="0%">
      <stop offset="0%" stop-color="#2CDA9C"/>
      <stop offset="100%" stop-color="#1F9948"/>
    </linearGradient>
  </defs>
  <path fill="url(#icon_feature_compile-a)" d="M273.394286,115.266436 L287.68,122.720982 C287.781429,122.773164 287.89,122.8 288,122.8 C288.11,122.8 288.218571,122.773164 288.32,122.720982 L302.605714,115.266436 C302.847143,115.139709 303,114.883273 303,114.6 L303,96.7090909 C303,96.5689455 302.955714,96.4407273 302.887143,96.3259273 C302.865714,96.2886545 302.834286,96.2648 302.805714,96.232 C302.765714,96.1842909 302.737143,96.1291273 302.685714,96.0918545 C302.66,96.0739636 302.628571,96.0739636 302.601429,96.0605455 C302.581429,96.0501091 302.571429,96.0262545 302.55,96.0173091 L288.264286,90.0536727 C288.094286,89.9821091 287.904286,89.9821091 287.734286,90.0536727 L273.448571,96.0173091 C273.427143,96.0262545 273.418571,96.0486182 273.397143,96.0605455 C273.371429,96.0739636 273.338571,96.0739636 273.314286,96.0918545 C273.262857,96.1276364 273.232857,96.1842909 273.192857,96.232 C273.165714,96.2648 273.134286,96.2886545 273.112857,96.3259273 C273.044286,96.4407273 273,96.5689455 273,96.7090909 L273,114.6 C273,114.883273 273.152857,115.139709 273.394286,115.266436 Z M274.428571,97.8108727 L287.285714,103.178145 L287.285714,120.8484 L274.428571,114.139309 L274.428571,97.8108727 Z M288.714286,120.8484 L288.714286,103.178145 L301.571429,97.8108727 L301.571429,114.139309 L288.714286,120.8484 Z M288,91.5490545 L300.362857,96.7090909 L288,101.869127 L275.637143,96.7090909 L288,91.5490545 Z" transform="translate(-273 -90)"/>
</svg>
