<svg xmlns="http://www.w3.org/2000/svg" width="22" height="30" viewBox="0 0 22 30">
  <defs>
    <linearGradient id="icon_promise_fature-a" x1="10.232%" x2="89.768%" y1="9.787%" y2="85.708%">
      <stop offset="0%" stop-color="#369CDC"/>
      <stop offset="100%" stop-color="#AA56D0"/>
    </linearGradient>
  </defs>
  <path fill="url(#icon_promise_fature-a)" fill-rule="evenodd" d="M0,0 L12.2553191,0 C18.7234043,0 22,2.77310924 22,8.36134454 C22,13.9915966 18.7234043,16.8067227 12.212766,16.8067227 L1.65957447,16.8067227 L1.65957447,30 L0,30 L0,0 Z M1.65957447,1.51260504 L1.65957447,15.2941176 L12.1702128,15.2941176 C14.9787234,15.2941176 17.0212766,14.6638655 18.3829787,13.487395 C19.6595745,12.3529412 20.3404255,10.6302521 20.3404255,8.36134454 C20.3404255,6.09243697 19.6595745,4.3697479 18.3829787,3.27731092 C17.0212766,2.10084034 14.9361702,1.51260504 12.1702128,1.51260504 L1.65957447,1.51260504 Z"/>
</svg>
