<svg xmlns="http://www.w3.org/2000/svg" width="30" height="33" viewBox="0 0 30 33">
  <defs>
    <linearGradient id="icon_compile_fature-a" x1="10.232%" x2="89.768%" y1="9.787%" y2="85.708%">
      <stop offset="0%" stop-color="#369CDC"/>
      <stop offset="100%" stop-color="#AA56D0"/>
    </linearGradient>
  </defs>
  <path fill="url(#icon_compile_fature-a)" d="M0.394285714,25.2664364 L14.68,32.7209818 C14.7814286,32.7731636 14.89,32.8 15,32.8 C15.11,32.8 15.2185714,32.7731636 15.32,32.7209818 L29.6057143,25.2664364 C29.8471429,25.1397091 30,24.8832727 30,24.6 L30,6.70909091 C30,6.56894545 29.9557143,6.44072727 29.8871429,6.32592727 C29.8657143,6.28865455 29.8342857,6.2648 29.8057143,6.232 C29.7657143,6.18429091 29.7371429,6.12912727 29.6857143,6.09185455 C29.66,6.07396364 29.6285714,6.07396364 29.6014286,6.06054545 C29.5814286,6.05010909 29.5714286,6.02625455 29.55,6.01730909 L15.2642857,0.0536727273 C15.0942857,-0.0178909091 14.9042857,-0.0178909091 14.7342857,0.0536727273 L0.448571429,6.01730909 C0.427142857,6.02625455 0.418571429,6.04861818 0.397142857,6.06054545 C0.371428571,6.07396364 0.338571429,6.07396364 0.314285714,6.09185455 C0.262857143,6.12763636 0.232857143,6.18429091 0.192857143,6.232 C0.165714286,6.2648 0.134285714,6.28865455 0.112857143,6.32592727 C0.0442857143,6.44072727 0,6.56894545 0,6.70909091 L0,24.6 C0,24.8832727 0.152857143,25.1397091 0.394285714,25.2664364 Z M1.42857143,7.81087273 L14.2857143,13.1781455 L14.2857143,30.8484 L1.42857143,24.1393091 L1.42857143,7.81087273 Z M15.7142857,30.8484 L15.7142857,13.1781455 L28.5714286,7.81087273 L28.5714286,24.1393091 L15.7142857,30.8484 Z M15,1.54905455 L27.3628571,6.70909091 L15,11.8691273 L2.63714286,6.70909091 L15,1.54905455 Z"/>
</svg>
