<svg xmlns="http://www.w3.org/2000/svg" width="22" height="30" viewBox="0 0 22 30">
  <defs>
    <linearGradient id="icon_feature_promise-a" x1="50%" x2="0%" y1="100%" y2="0%">
      <stop offset="0%" stop-color="#2CDA9C"/>
      <stop offset="100%" stop-color="#1F9948"/>
    </linearGradient>
  </defs>
  <path fill="url(#icon_feature_promise-a)" fill-rule="evenodd" d="M129,90 L141.255319,90 C147.723404,90 151,92.7731092 151,98.3613445 C151,103.991597 147.723404,106.806723 141.212766,106.806723 L130.659574,106.806723 L130.659574,120 L129,120 L129,90 Z M130.659574,91.512605 L130.659574,105.294118 L141.170213,105.294118 C143.978723,105.294118 146.021277,104.663866 147.382979,103.487395 C148.659574,102.352941 149.340426,100.630252 149.340426,98.3613445 C149.340426,96.092437 148.659574,94.3697479 147.382979,93.2773109 C146.021277,92.1008403 143.93617,91.512605 141.170213,91.512605 L130.659574,91.512605 Z" transform="translate(-129 -90)"/>
</svg>
