<svg xmlns="http://www.w3.org/2000/svg" width="38" height="24" viewBox="0 0 38 24">
  <defs>
    <linearGradient id="icon_es_fature-a" x1="10.232%" x2="89.768%" y1="9.787%" y2="85.708%">
      <stop offset="0%" stop-color="#369CDC"/>
      <stop offset="100%" stop-color="#AA56D0"/>
    </linearGradient>
  </defs>
  <path fill="url(#icon_es_fature-a)" fill-rule="evenodd" d="M11,16.448 L11,39.296 L27.576,39.296 L27.576,37.568 L12.952,37.568 L12.952,28.352 L26.264,28.352 L26.264,26.592 L12.952,26.592 L12.952,18.176 L27.032,18.176 L27.032,16.448 L11,16.448 Z M39.7439998,16 C37.4399998,16 35.5199998,16.48 34.0479998,17.472 C32.3839998,18.528 31.5839998,20.032 31.5839998,22.016 C31.5839998,23.872 32.4479998,25.312 34.2079998,26.304 C34.9759998,26.752 36.7359998,27.36 39.4559998,28.128 C42.0479998,28.832 43.7119998,29.44 44.4799998,29.888 C46.0159998,30.752 46.8159998,31.968 46.8159998,33.536 C46.8159998,34.88 46.1759998,35.968 44.9599998,36.768 C43.7119998,37.536 42.0799998,37.952 40.0639998,37.952 C37.9519998,37.952 36.3199998,37.472 35.1679998,36.544 C33.8879998,35.488 33.1519998,33.888 32.9279998,31.744 L31.0079998,31.744 C31.1999998,34.496 32.1599998,36.576 33.8879998,37.952 C35.3919998,39.136 37.4719998,39.744 40.0959998,39.744 C42.6879998,39.744 44.7679998,39.2 46.3359998,38.112 C47.9679998,36.96 48.7999998,35.392 48.7999998,33.44 C48.7999998,31.36 47.8399998,29.76 45.9519998,28.64 C44.9279998,28 42.9759998,27.296 40.0639998,26.464 C37.8239998,25.824 36.3519998,25.312 35.6799998,24.992 C34.2399998,24.224 33.5359998,23.232 33.5359998,21.952 C33.5359998,20.512 34.1119998,19.424 35.3279998,18.72 C36.3839998,18.08 37.8239998,17.76 39.6799998,17.76 C41.6639998,17.76 43.1999998,18.208 44.2879998,19.136 C45.3759998,20.064 46.0479998,21.408 46.3039998,23.2 L48.2559998,23.2 C48.0639998,20.832 47.1999998,19.04 45.6959998,17.824 C44.2239998,16.608 42.2399998,16 39.7439998,16 Z" transform="translate(-11 -16)"/>
</svg>
