<svg xmlns="http://www.w3.org/2000/svg" width="32" height="32" viewBox="0 0 32 32">
  <defs>
    <linearGradient id="icon_feature_size-a" x1="50%" x2="0%" y1="100%" y2="0%">
      <stop offset="0%" stop-color="#2CDA9C"/>
      <stop offset="100%" stop-color="#1F9948"/>
    </linearGradient>
  </defs>
  <g fill="url(#icon_feature_size-a)">
    <path d="M31.98,7.49466667 C32.0293333,7.296 31.984,7.084 31.8586667,6.92266667 C31.732,6.76133333 31.5386667,6.66666667 31.3333333,6.66666667 L29.3333333,6.66666667 L29.3333333,3.33333333 C29.3333333,2.96533333 29.0346667,2.66666667 28.6666667,2.66666667 L11.1333333,2.66666667 L8.09066667,0.153333333 C7.972,0.0546666667 7.82133333,0 7.66666667,0 L0.666666667,0 C0.298666667,0 0,0.298666667 0,0.666666667 L0,22 C0,22.028 0.012,22.052 0.016,22.0786667 C0.02,22.1173333 0.0266666667,22.152 0.0386666667,22.1893333 C0.056,22.248 0.0826666667,22.3 0.114666667,22.3506667 C0.126666667,22.3693333 0.129333333,22.392 0.142666667,22.4106667 C0.150666667,22.42 0.161333333,22.424 0.169333333,22.432 C0.213333333,22.484 0.266666667,22.5226667 0.325333333,22.5586667 C0.348,22.572 0.366666667,22.5906667 0.389333333,22.6026667 C0.474666667,22.6413333 0.566666667,22.6666667 0.666666667,22.6666667 L12.0333333,22.6666667 C12.3786667,27.8693333 16.7106667,32 22,32 C27.5146667,32 32,27.5146667 32,22 C32,19.6973333 31.2106667,17.5813333 29.8973333,15.888 L31.98,7.49466667 Z M7.42666667,1.33333333 L10.468,3.84666667 C10.588,3.94666667 10.7386667,4 10.8933333,4 L28,4 L28,6.66666667 L4.29333333,6.66666667 C3.98666667,6.66666667 3.72,6.876 3.64666667,7.17333333 L1.33333333,16.5266667 L1.33333333,1.33333333 L7.42666667,1.33333333 Z M4.816,8 L30.4813333,8 L28.8173333,14.704 C27.0293333,13.032 24.636,12 22,12 C16.7106667,12 12.3786667,16.1306667 12.0333333,21.3333333 L1.51866667,21.3333333 L4.816,8 Z M22,30.6666667 C17.2213333,30.6666667 13.3333333,26.7786667 13.3333333,22 C13.3333333,17.2213333 17.2213333,13.3333333 22,13.3333333 C26.7786667,13.3333333 30.6666667,17.2213333 30.6666667,22 C30.6666667,26.7786667 26.7786667,30.6666667 22,30.6666667 Z"/>
    <path d="M22 17.3333333C22.368 17.3333333 22.6666667 17.0346667 22.6666667 16.6666667L22.6666667 15.3333333C22.6666667 14.9653333 22.368 14.6666667 22 14.6666667 21.632 14.6666667 21.3333333 14.9653333 21.3333333 15.3333333L21.3333333 16.6666667C21.3333333 17.0346667 21.632 17.3333333 22 17.3333333zM22 21.3333333C22.368 21.3333333 22.6666667 21.0346667 22.6666667 20.6666667L22.6666667 19.3333333C22.6666667 18.9653333 22.368 18.6666667 22 18.6666667 21.632 18.6666667 21.3333333 18.9653333 21.3333333 19.3333333L21.3333333 20.6666667C21.3333333 21.0346667 21.632 21.3333333 22 21.3333333zM22.6666667 24.1226667L22.6666667 23.3333333C22.6666667 22.9653333 22.368 22.6666667 22 22.6666667 21.632 22.6666667 21.3333333 22.9653333 21.3333333 23.3333333L21.3333333 24.1226667C20.5586667 24.3986667 20 25.132 20 26L20 28.6666667C20 29.0346667 20.2986667 29.3333333 20.6666667 29.3333333L23.3333333 29.3333333C23.7013333 29.3333333 24 29.0346667 24 28.6666667L24 26C24 25.132 23.4413333 24.3986667 22.6666667 24.1226667zM22.6666667 28L21.3333333 28 21.3333333 26C21.3333333 25.632 21.632 25.3333333 22 25.3333333 22.368 25.3333333 22.6666667 25.632 22.6666667 26L22.6666667 28z"/>
  </g>
</svg>
