<svg xmlns="http://www.w3.org/2000/svg" width="21" height="32" viewBox="0 0 21 32">
  <defs>
    <linearGradient id="icon_plugin_fature-a" x1="2.477%" x2="80.816%" y1="24.568%" y2="76.794%">
      <stop offset="0%" stop-color="#369CDC"/>
      <stop offset="100%" stop-color="#AA56D0"/>
    </linearGradient>
  </defs>
  <path fill="url(#icon_plugin_fature-a)" d="M7.21875,30.6666667 L0.65625,30.6666667 C0.294,30.6666667 0,30.9653333 0,31.3333333 C0,31.7013333 0.294,32 0.65625,32 L7.21875,32 C10.4750625,32 13.125,29.308 13.125,26 L13.125,22.6666667 L15.09375,22.6666667 C15.456,22.6666667 15.75,22.368 15.75,22 L15.75,20 L19.03125,20 C20.1166875,20 21,19.1026667 21,18 L21,8.66666667 C21,7.564 20.1166875,6.66666667 19.03125,6.66666667 L17.0625,6.66666667 L17.0625,0.666666667 C17.0625,0.298666667 16.7685,0 16.40625,0 C16.044,0 15.75,0.298666667 15.75,0.666666667 L15.75,6.66666667 L9.1875,6.66666667 L9.1875,0.666666667 C9.1875,0.298666667 8.8935,0 8.53125,0 C8.169,0 7.875,0.298666667 7.875,0.666666667 L7.875,6.66666667 L5.90625,6.66666667 C4.8208125,6.66666667 3.9375,7.564 3.9375,8.66666667 L3.9375,18 C3.9375,19.1026667 4.8208125,20 5.90625,20 L9.1875,20 L9.1875,22 C9.1875,22.368 9.4815,22.6666667 9.84375,22.6666667 L11.8125,22.6666667 L11.8125,26 C11.8125,28.5733333 9.751875,30.6666667 7.21875,30.6666667 Z M5.25,18 L5.25,8.66666667 C5.25,8.29866667 5.544,8 5.90625,8 L19.03125,8 C19.3935,8 19.6875,8.29866667 19.6875,8.66666667 L19.6875,18 C19.6875,18.368 19.3935,18.6666667 19.03125,18.6666667 L5.90625,18.6666667 C5.544,18.6666667 5.25,18.368 5.25,18 Z M10.5,20 L14.4375,20 L14.4375,21.3333333 L10.5,21.3333333 L10.5,20 Z"/>
</svg>
