<svg xmlns="http://www.w3.org/2000/svg" width="38" height="24" viewBox="0 0 38 24">
  <defs>
    <linearGradient id="icon_feature_es-a" x1="50%" x2="0%" y1="100%" y2="0%">
      <stop offset="0%" stop-color="#2CDA9C"/>
      <stop offset="100%" stop-color="#1F9948"/>
    </linearGradient>
  </defs>
  <path fill="url(#icon_feature_es-a)" fill-rule="evenodd" d="M425,90.4528302 L425,113.54717 L441.663704,113.54717 L441.663704,111.800539 L426.962328,111.800539 L426.962328,102.485175 L440.344762,102.485175 L440.344762,100.706199 L426.962328,100.706199 L426.962328,92.1994609 L441.116825,92.1994609 L441.116825,90.4528302 L425,90.4528302 Z M453.896085,90 C451.579894,90 449.649735,90.4851752 448.169947,91.4878706 C446.497143,92.5552561 445.69291,94.0754717 445.69291,96.0808625 C445.69291,97.9568733 446.561481,99.4123989 448.330794,100.415094 C449.102857,100.867925 450.872169,101.48248 453.606561,102.25876 C456.212275,102.97035 457.885079,103.584906 458.657143,104.037736 C460.20127,104.911051 461.005503,106.140162 461.005503,107.725067 C461.005503,109.083558 460.362116,110.183288 459.139683,110.991914 C457.885079,111.768194 456.244444,112.188679 454.217778,112.188679 C452.094603,112.188679 450.453968,111.703504 449.295873,110.765499 C448.0091,109.698113 447.269206,108.080863 447.044021,105.913747 L445.113862,105.913747 C445.306878,108.695418 446.271958,110.797844 448.0091,112.188679 C449.521058,113.385445 451.612063,114 454.249947,114 C456.855661,114 458.946667,113.450135 460.522963,112.350404 C462.163598,111.185984 463,109.601078 463,107.628032 C463,105.525606 462.034921,103.908356 460.136931,102.77628 C459.107513,102.12938 457.145185,101.41779 454.217778,100.576819 C451.965926,99.9299191 450.486137,99.4123989 449.810582,99.0889488 C448.362963,98.3126685 447.655238,97.309973 447.655238,96.0161725 C447.655238,94.5606469 448.234286,93.4609164 449.45672,92.7493261 C450.518307,92.1024259 451.965926,91.7789757 453.831746,91.7789757 C455.826243,91.7789757 457.37037,92.2318059 458.464127,93.1698113 C459.557884,94.1078167 460.233439,95.4663073 460.490794,97.277628 L462.453122,97.277628 C462.260106,94.884097 461.391534,93.0727763 459.879577,91.8436658 C458.399788,90.6145553 456.405291,90 453.896085,90 Z" transform="translate(-425 -90)"/>
</svg>
