<svg xmlns="http://www.w3.org/2000/svg" width="32" height="32" viewBox="0 0 32 32">
  <defs>
    <linearGradient id="icon_feature_optimize-a" x1="50%" x2="0%" y1="100%" y2="0%">
      <stop offset="0%" stop-color="#2CDA9C"/>
      <stop offset="100%" stop-color="#1F9948"/>
    </linearGradient>
  </defs>
  <path fill="url(#icon_feature_optimize-a)" d="M606.18,94.1106667 C605.956,94.0586667 605.718667,94.1253333 605.556,94.288 L602.12,97.724 L599.276,94.88 L602.712,91.444 C602.876,91.28 602.942667,91.044 602.889333,90.82 C602.836,90.5946667 602.669333,90.4133333 602.450667,90.34 C601.772,90.1146667 601.058667,90 600.333333,90 C596.657333,90 593.666667,92.9906667 593.666667,96.6666667 C593.666667,97.36 593.802667,98.016 594,98.6453333 C591.113333,102.285333 587.284,106.113333 583.645333,109 C583.016,108.802667 582.36,108.666667 581.666667,108.666667 C577.990667,108.666667 575,111.657333 575,115.333333 C575,116.058667 575.114667,116.772 575.34,117.450667 C575.413333,117.669333 575.594667,117.836 575.82,117.889333 C576.045333,117.942667 576.281333,117.874667 576.444,117.712 L579.88,114.276 L582.724,117.12 L579.288,120.556 C579.125333,120.72 579.057333,120.956 579.110667,121.18 C579.164,121.405333 579.330667,121.586667 579.549333,121.66 C580.228,121.885333 580.941333,122 581.666667,122 C585.342667,122 588.333333,119.009333 588.333333,115.333333 C588.333333,114.64 588.197333,113.984 588,113.354667 C590.886667,109.714667 594.716,105.886667 598.354667,103 C598.984,103.197333 599.64,103.333333 600.333333,103.333333 C604.009333,103.333333 607,100.342667 607,96.6666667 C607,95.9413333 606.885333,95.228 606.66,94.5493333 C606.585333,94.3306667 606.405333,94.164 606.18,94.1106667 Z M581.666667,120.666667 C581.473333,120.666667 581.282667,120.657333 581.092,120.637333 L584.137333,117.592 C584.397333,117.332 584.397333,116.909333 584.137333,116.649333 L580.350667,112.862667 C580.090667,112.602667 579.668,112.602667 579.408,112.862667 L576.362667,115.908 C576.342667,115.717333 576.333333,115.526667 576.333333,115.333333 C576.333333,112.392 578.725333,110 581.666667,110 C584.608,110 587,112.392 587,115.333333 C587,118.274667 584.608,120.666667 581.666667,120.666667 Z M587.396,111.981333 C586.817333,110.997333 586.002667,110.181333 585.017333,109.602667 C588.424,106.833333 591.834667,103.424 594.602667,100.017333 C595.181333,101.001333 595.996,101.817333 596.981333,102.396 C593.574667,105.165333 590.165333,108.574667 587.396,111.981333 Z M600.333333,102 C597.392,102 595,99.608 595,96.6666667 C595,93.7253333 597.392,91.3333333 600.333333,91.3333333 C600.525333,91.3333333 600.717333,91.3426667 600.908,91.364 L597.862667,94.4093333 C597.602667,94.6693333 597.602667,95.092 597.862667,95.352 L601.649333,99.1386667 C601.909333,99.3986667 602.332,99.3986667 602.592,99.1386667 L605.637333,96.0933333 C605.657333,96.2826667 605.666667,96.4746667 605.666667,96.6666667 C605.666667,99.608 603.274667,102 600.333333,102 Z" transform="translate(-575 -90)"/>
</svg>
