<svg xmlns="http://www.w3.org/2000/svg" width="24" height="22" viewBox="0 0 24 22">
  <g fill="#FFF">
    <path d="M16.6079018,7.50839286 C14.4117411,7.62316964 12.5020089,8.28888393 10.9515179,9.79303571 C9.385,11.3127232 8.66991071,13.1747768 8.86535714,15.4832589 C8.00696429,15.376875 7.22508929,15.2598661 6.43879464,15.1936161 C6.16723214,15.1707589 5.84495536,15.2032589 5.61495536,15.3330357 C4.85142857,15.7638839 4.11946429,16.2503571 3.251875,16.7925893 C3.41107143,16.0726339 3.51410714,15.4421429 3.69651786,14.8357589 C3.83066964,14.3900446 3.76852679,14.1420089 3.35794643,13.8516518 C0.7215625,11.9904018 -0.389732143,9.20482143 0.441919643,6.33696429 C1.21138393,3.68392857 3.10089286,2.07495536 5.66830357,1.23620536 C9.17263393,0.0915178571 13.1108482,1.25915179 15.2417411,4.04133929 C16.01125,5.04633929 16.4832143,6.17433036 16.6079018,7.50839286 L16.6079018,7.50839286 Z M6.5003125,6.61477679 C6.52049107,6.09026786 6.06602679,5.61772321 5.52616071,5.60191964 C4.9734375,5.58571429 4.51879464,6.00808036 4.50263393,6.5528125 C4.48633929,7.10482143 4.90852679,7.5471875 5.46526786,7.56129464 C6.01723214,7.57526786 6.47991071,7.15232143 6.5003125,6.61477679 L6.5003125,6.61477679 Z M11.7738393,5.6015625 C11.2320089,5.61151786 10.7741071,6.07303571 10.7837054,6.59964286 C10.7936161,7.14549107 11.2427679,7.57254464 11.7999554,7.56584821 C12.3586161,7.55910714 12.7822768,7.12758929 12.7769643,6.57022321 C12.7723661,6.02303571 12.3252232,5.59151786 11.7738393,5.6015625 L11.7738393,5.6015625 Z"/>
    <path d="M21.5420089,21.2 C20.8466071,20.8903571 20.2086607,20.4257589 19.5295536,20.3548214 C18.8529911,20.2841518 18.1417411,20.6745089 17.4339286,20.746875 C15.2778571,20.9674554 13.3462054,20.3665179 11.7534821,18.8936607 C8.72424107,16.0917857 9.15709821,11.7958036 12.6617411,9.49973214 C15.7765625,7.45910714 20.3446429,8.139375 22.5407143,10.9708482 C24.4571429,13.4415625 24.2319196,16.7213839 21.8924107,18.7970089 C21.2153125,19.3977232 20.9717411,19.8920982 21.4061161,20.6839732 C21.4862946,20.8301786 21.4954018,21.0153125 21.5420089,21.2 L21.5420089,21.2 Z M13.6259821,13.5357143 C14.0687946,13.5361607 14.4332589,13.1896429 14.45,12.7524107 C14.4677232,12.2894196 14.0953571,11.9011607 13.6318304,11.8992411 C13.1729018,11.8970982 12.7883036,12.2909375 12.8043304,12.7469196 C12.819375,13.1827232 13.1864732,13.5351786 13.6259821,13.5357143 L13.6259821,13.5357143 Z M18.7289732,11.9010268 C18.2994643,11.8980357 17.9344196,12.2496875 17.9169196,12.6837054 C17.8983036,13.1478571 18.2591071,13.5289732 18.7183482,13.5301339 C19.1626339,13.5316518 19.5137054,13.1956696 19.5299107,12.7535714 C19.5470982,12.2883482 19.1862054,11.9041964 18.7289732,11.9010268 L18.7289732,11.9010268 Z"/>
  </g>
</svg>
