<svg width="20" height="20" viewBox="0 0 20 20" xmlns="http://www.w3.org/2000/svg"><title>icon_github</title><path d="M1.667 10.041a8.334 8.334 0 0 0 5.699 7.907c.417.077.569-.18.569-.401 0-.198-.008-.722-.012-1.417-2.318.503-2.807-1.118-2.807-1.118-.379-.962-.925-1.219-.925-1.219-.757-.516.057-.506.057-.506.837.059 1.276.859 1.276.859.744 1.273 1.951.905 2.426.692.076-.538.29-.906.529-1.114-1.85-.21-3.796-.925-3.796-4.118 0-.91.325-1.654.858-2.237-.086-.21-.372-1.058.082-2.205 0 0 .699-.224 2.291.854A7.982 7.982 0 0 1 10 5.738a7.99 7.99 0 0 1 2.086.28c1.591-1.078 2.29-.854 2.29-.854.455 1.147.169 1.995.083 2.205.534.583.857 1.327.857 2.237 0 3.201-1.95 3.905-3.805 4.112.299.257.565.765.565 1.543 0 1.114-.01 2.013-.01 2.286 0 .223.15.482.573.4a8.334 8.334 0 1 0-10.972-7.906z" fill="#FFF" fill-rule="evenodd"/></svg>